<svg width="512" height="512" viewBox="0 0 512 512" fill="none" xmlns="http://www.w3.org/2000/svg">
<g clip-path="url(#clip0_25_344)">
<path d="M43.7983 174.277C42.0135 176.244 40.3294 178.003 38.4468 179.816C34.7644 179.305 33.5572 177.284 34.5651 173.787C35.044 172.125 35.443 170.439 35.8247 168.541C36.3617 165.674 36.9523 163.029 37.56 159.973C37.6674 158.894 37.7578 158.227 37.8481 157.56C37.9767 157.064 38.1053 156.569 38.2039 155.886C38.6529 153.899 39.2448 152.12 39.5839 150.293C40.0699 147.676 38.9119 146.187 36.3685 145.912C30.2921 145.254 24.2145 144.609 17.9205 143.975C16.0921 143.789 14.3766 143.866 12.9009 143.295C11.649 142.81 9.94809 141.699 9.78389 140.639C9.62455 139.61 10.9393 137.945 12.0206 137.189C13.4931 136.158 15.3584 135.723 17.4015 134.947C19.3659 134.107 20.9843 133.354 22.6026 132.6C25.9146 131.275 29.2225 129.938 32.5427 128.634C33.1381 128.4 33.7764 128.229 34.4081 128.158C37.87 127.766 38.6406 126.578 37.4244 123.322C34.8095 116.322 32.1702 109.332 29.5399 102.338C29.3666 101.877 29.1854 101.419 29.0067 100.961C28.2072 98.9089 28.323 96.6351 30.1736 95.6989C31.2627 95.148 33.5443 95.8584 34.6423 96.7997C38.9094 100.458 42.995 104.352 47.0048 108.312C54.2896 115.507 54.6489 114.462 59.8541 107.388C64.1431 101.56 68.5368 95.8126 73.064 89.9049C75.4795 89.6431 76.8723 90.7371 77.6212 93.0807C77.402 94.2416 77.1057 95.2067 76.7805 96.6284C76.2142 99.8888 75.6769 102.692 75.1396 105.496C74.1708 110.284 73.0664 115.05 72.3074 119.871C72.0455 121.535 72.7395 123.168 74.9996 123.202C76.4848 123.224 77.9644 123.54 79.8201 123.863C80.5187 123.972 80.8437 123.943 81.3776 123.982C82.8368 124.162 84.0872 124.272 85.5452 124.468C89.6198 124.995 93.5069 125.312 97.342 125.951C98.5727 126.156 100.138 126.945 100.674 127.96C101.11 128.787 100.238 130.349 99.9462 131.585C97.1601 132.776 94.374 133.967 91.248 135.302C89.5008 136.061 88.0935 136.676 86.6863 137.292C83.3179 138.606 79.9227 139.852 76.5915 141.26C74.6295 142.09 73.7929 143.553 75.1152 146.039C75.4112 146.955 75.6064 147.509 75.8016 148.063C76.9781 151.339 78.1547 154.615 79.4689 158.245C80.255 160.458 80.9035 162.317 81.552 164.176C81.5882 164.375 81.6244 164.574 81.7512 165.077C82.2336 166.281 82.6253 167.18 83.0171 168.079C83.3621 170.413 84.041 172.986 80.5592 173.334C79.6702 173.423 78.5958 173.026 77.8234 172.51C76.1846 171.414 74.6885 170.094 72.9023 168.561C71.3827 166.976 70.0946 165.696 68.8066 164.417C66.3159 162.175 63.8282 159.931 61.3336 157.694C58.8845 155.498 57.0676 155.622 55.1476 158.259C53.7258 160.211 52.4513 162.277 50.8455 164.662C48.9397 167.186 47.2996 169.341 45.6595 171.495C45.0727 172.353 44.4858 173.211 43.7983 174.277Z" fill="#F09F82"/>
<path d="M471.607 389.225C469.479 386.13 468.697 382.117 464.819 380.876C463.711 380.521 462.461 380.634 461.075 380.612C455.84 380.604 450.807 380.53 445.774 380.417C444.58 380.391 443.167 380.621 442.24 380.062C439.743 378.555 439.827 375.808 442.349 374.106C445.837 371.753 449.419 369.546 453.061 367.108C454.799 366.023 456.502 365.207 458.064 364.168C460.587 362.49 461.675 360.031 461.598 356.926C461.441 350.631 461.349 344.333 461.319 338.036C461.314 337.002 461.764 335.966 462.063 334.759C464.323 333.549 465.904 334.283 467.082 336.344C470.245 341.879 473.453 347.388 476.603 352.932C478.143 355.64 480.384 356.911 483.439 356.912C489.076 356.912 494.714 357.002 500.55 357.004C501.943 357.464 503.139 357.974 504.457 358.621C505.198 361.086 503.849 362.38 502.176 363.457C497.331 366.575 492.461 369.654 487.618 372.775C485.17 374.352 483.948 376.683 483.985 379.626C484.063 385.848 484.247 392.07 484.29 398.293C484.298 399.441 483.849 400.592 483.55 401.928C482.408 402.298 481.326 402.483 480.041 402.611C478.975 401.452 478.113 400.351 477.12 398.85C476.086 397.101 475.183 395.752 474.279 394.402C473.418 392.744 472.557 391.086 471.607 389.225Z" fill="#F09F82"/>
<path d="M398.552 191.136C405.999 194.511 413.443 197.893 420.896 201.255C422.214 201.85 423.567 202.363 425.152 202.916C429.495 205.841 433.714 208.601 437.662 211.722C448.097 219.971 456.327 229.879 458.714 243.656C459.332 247.221 459.01 250.957 459.116 254.935C457.813 266 452.845 274.379 443.913 280.289C434.644 286.422 424.52 287.245 413.492 285.417C405.117 283.125 398.056 279.342 391.911 273.73C395.087 269.413 399.409 268.41 404.139 268.356C405.728 268.338 407.687 268.883 408.257 266.287C413.983 267.206 419.282 268.52 425.002 267.807C438.599 266.111 446.03 252.418 438.115 240.319C433.863 233.82 427.943 229.419 420.736 226.951C413.858 224.595 406.862 222.6 399.994 220.213C392.856 217.732 386.322 214.115 381.197 208.218C383.493 206.657 386.027 205.654 387.748 203.842C391.566 199.822 394.976 195.396 398.552 191.136Z" fill="#EBD8C0"/>
<path d="M407.979 266.28C407.687 268.883 405.728 268.338 404.139 268.356C399.409 268.41 395.087 269.413 391.693 273.627C390.851 274.231 389.926 274.671 389.858 275.222C389.35 279.338 389.01 283.475 388.618 287.606C386.86 302.152 381.297 315.18 373.117 327.025C362.764 342.016 349.124 353.192 333.055 361.086C319.695 367.649 305.459 371.378 290.834 373.964C274.732 376.81 258.531 377.279 242.38 376.379C219.395 375.098 196.99 370.469 176.291 359.48C157.454 349.48 142.307 335.339 132.367 316.004C127.418 306.378 123.936 296.062 123.411 284.969C123.243 281.433 123.008 277.9 122.721 274.372C122.683 273.909 122.147 273.489 121.44 272.978C120.024 272.106 119.097 271.136 117.979 270.539C114.886 268.888 111.706 267.402 110.785 263.355C113.808 261.425 116.885 259.939 119.52 257.864C122.151 255.793 125.098 254.153 126.06 250.093C128.565 239.513 132.282 229.347 137.613 219.836C139.243 216.929 140.255 213.658 141.853 210.534C151.058 210.309 159.249 207.875 166.585 201.705C171.52 213.158 179.597 220.035 191.319 221.423C202.931 222.797 212.48 218.346 220.031 208.536C228.333 221.651 239.919 228.394 254.663 228.277C269.642 228.158 280.892 220.515 289.505 207.235C290.952 209.021 291.974 210.557 293.253 211.817C302.182 220.607 312.894 223.344 324.79 220.717C333.625 218.766 340.715 213.656 346.146 206.224C347.151 204.849 347.951 203.708 349.917 205.028C356.312 209.321 363.583 210.31 371 210.817C371.28 212.397 371.292 213.876 371.921 214.986C378.502 226.597 383.523 238.859 387.055 251.786C387.407 253.074 388.231 254.601 389.286 255.253C395.442 259.055 401.733 262.629 407.979 266.28ZM336.678 330.736C345.375 331.068 353.081 328.972 359.295 322.131C365.382 315.43 365.644 304.717 359.734 297.804C350.424 286.914 333.107 285.82 321.977 294.225C312.844 301.122 311.518 315.779 319.893 323.373C324.675 327.709 329.983 329.891 336.678 330.736ZM196.47 302.299C193.734 299.19 191.505 295.237 188.166 293.132C178.434 286.996 168 287.026 158.294 293.036C145.281 301.095 144.681 317.019 156.636 325.671C163.038 330.305 170.229 331.376 177.928 330.441C190.346 328.933 201.897 317.692 196.47 302.299ZM238.371 320.664C245.009 322.565 250.922 320.962 256.129 316.596C256.583 316.944 256.858 317.139 257.116 317.354C265.609 324.415 279.119 321.882 284.609 312.198C286.198 309.395 285.681 306.317 283.384 304.907C281.058 303.479 278.469 304.074 276.822 306.822C274.995 309.871 272.127 310.978 269.062 311.683C266.182 312.345 261.99 309.898 261.057 307.205C259.938 303.977 261.198 301.73 263.924 300.003C265.631 298.921 267.182 297.576 268.78 296.318C271.446 294.22 272.387 290.374 270.779 288.247C269.306 286.299 265.511 286.453 262.906 288.523C261.225 289.858 259.608 291.342 257.75 292.349C256.803 292.862 255.129 292.93 254.236 292.399C252.127 291.144 250.314 289.377 248.335 287.88C246.331 286.365 242.585 286.55 241.235 288.16C239.437 290.306 239.633 292.9 242.087 295.157C244.246 297.143 246.654 298.845 248.944 300.682C252.553 303.579 252.137 308.083 248.063 310.263C243.36 312.781 238.909 311.628 235.456 306.996C233.216 303.992 230.654 303.353 228.364 305.227C225.824 307.305 225.414 310.413 228.064 312.957C231.029 315.804 234.56 318.033 238.371 320.664ZM212.551 269.044C207.696 264.913 202.226 263.385 195.825 263.415C185.664 263.461 178.978 268.395 174.361 277.097C172.74 280.152 173.396 282.808 175.98 284.4C178.411 285.898 182.437 284.908 183.754 282.06C188.388 272.049 204.053 271.833 209.063 281.882C210.79 285.346 213.856 286.159 216.612 284.494C219.208 282.926 220.099 279.484 218.249 276.366C216.759 273.854 214.709 271.69 212.551 269.044ZM335.673 273.206C330.406 265.762 323.265 263.126 314.388 263.42C304.654 263.742 298.295 268.76 293.693 276.874C292.101 279.679 293.031 282.773 295.566 284.387C298.087 285.993 300.846 285.207 302.818 282.402C303.923 280.831 304.966 279.155 306.325 277.838C312.183 272.165 324.698 273.59 328.61 281.913C330.11 285.104 333.039 286.056 335.567 284.698C338.685 283.023 339.541 279.898 337.761 276.514C337.231 275.507 336.567 274.575 335.673 273.206Z" fill="#EAD7BE"/>
<path d="M102.753 284.142C97.0812 284.91 91.5822 286.178 86.0832 286.177C69.7947 286.176 54.7352 271.804 53.4583 256.157C53.2268 253.32 53.0272 250.481 53 247.139C54.6095 234.766 60.3666 225.1 68.5437 217.064C77.9739 207.797 89.5136 201.784 101.432 196.51C105.504 194.708 109.398 192.486 113.551 190.603C116.317 194.262 118.558 198.139 121.596 201.178C124.464 204.046 128.17 206.033 131.403 208.616C122.305 216.071 112.099 220.655 101.083 223.642C91.9867 226.109 83.0766 229.132 76.5866 236.777C69.7326 244.851 68.3649 257.034 77.6418 264.492C76.2094 264.998 74.825 265.256 73.2149 265.557C72.2557 268.275 74.2361 269.559 76.1376 271.078C77.4484 272.125 78.7272 273.451 79.4845 274.939C81.0093 277.934 85.4862 278.938 88.1704 277.05C90.443 275.452 93.1016 274.4 95.6645 273.288C96.2401 273.038 97.6197 273.325 97.7959 273.738C99.3339 277.343 103.962 278.906 103.927 283.504C103.593 283.69 103.26 283.876 102.753 284.142Z" fill="#EBD8C0"/>
<path d="M388.852 305.975C391.672 305.428 394.296 305.041 397.125 304.57C408.968 306.705 417.051 313.765 422.201 324.348C423.636 327.297 423.768 330.911 424.606 334.416C422.648 338.74 420.582 342.869 418.102 347.132C413.741 348.98 409.772 348.83 405.524 347.231C396.916 341.326 388.629 335.543 383.962 325.932C381.94 321.767 379.558 317.708 380.129 312.75C382.971 310.545 385.814 308.34 388.852 305.975Z" fill="#A3917B"/>
<path d="M379.844 312.703C379.558 317.708 381.94 321.767 383.962 325.932C388.629 335.544 396.916 341.326 405.327 347.494C403.44 350.28 401.608 352.74 399.513 354.935C391.901 362.908 384.576 371.227 376.438 378.6C366.246 387.833 354.639 394.916 341.162 398.137C335.265 399.546 334.128 401.095 335.179 407.127C328.802 406.222 325.354 401.419 322.82 396.277C318.483 387.475 320.214 378.839 324.738 370.448C330.048 360.598 338.062 353.142 345.588 345.291C353.833 336.691 362.471 328.483 371.014 320.187C373.738 317.541 376.704 315.158 379.844 312.703Z" fill="#EAD7BE"/>
<path d="M335.393 407.324C334.129 401.095 335.265 399.546 341.162 398.137C354.639 394.916 366.246 387.833 376.438 378.599C384.576 371.227 391.901 362.908 399.513 354.935C401.609 352.74 403.441 350.28 405.591 347.679C409.772 348.83 413.742 348.981 417.893 347.363C402.529 371.005 384.222 391.617 358.839 404.357C353.978 406.797 348.521 408.023 343.292 409.652C340.393 410.555 337.745 409.836 335.393 407.324Z" fill="#B2A18A"/>
<path d="M235.821 388.503C231.926 384.571 228.256 380.366 224.089 376.763C215.846 369.637 207.512 362.59 198.871 355.984C190.23 349.377 181.466 342.832 172.2 337.223C164.236 332.401 155.284 330.306 145.92 333.173C136.929 335.927 131.078 341.776 129.441 351.613C134.565 349.846 137.817 351.224 139.384 355.974C143.62 368.809 151.104 379.558 160.223 389.109C172.941 402.43 187.577 413.231 203.539 422.071C206.846 415.818 209.346 409.334 213.342 404.034C219.024 396.497 226.086 390.262 235.821 388.503Z" fill="#EAD7BE"/>
<path d="M236.124 388.645C226.086 390.263 219.023 396.498 213.341 404.035C209.345 409.335 206.846 415.818 203.605 422.312C203.396 424.097 202.988 425.387 203.176 426.579C203.688 429.819 204.451 433.018 205.114 436.233C209.557 439.121 214.256 441.214 219.911 441.221C228.954 440.05 235.013 434.703 240.228 427.786C243.898 422.918 246.537 417.77 247.365 411.61C248.008 406.82 247.525 402.313 245.353 397.76C243.07 393.848 240.718 390.28 236.124 388.645Z" fill="#A3917B"/>
<path d="M204.785 436.11C204.45 433.018 203.687 429.819 203.176 426.579C202.988 425.387 203.395 424.097 203.465 422.61C187.576 413.231 172.94 402.43 160.222 389.109C151.103 379.559 143.619 368.81 139.383 355.975C137.816 351.224 134.563 349.846 129.554 351.885C126.457 355.413 126.601 359.037 128.173 363.219C134.432 379.868 145.259 393.032 158.256 404.366C165.613 410.782 173.562 416.55 181.608 422.052C188.97 427.087 196.821 431.373 204.785 436.11Z" fill="#B2A18A"/>
<path d="M104.169 283.484C103.962 278.906 99.3342 277.343 97.7962 273.738C97.62 273.325 96.2404 273.038 95.6648 273.288C93.1019 274.4 90.4433 275.452 88.1707 277.051C85.4865 278.938 81.0096 277.934 79.4848 274.939C78.7275 273.451 77.4487 272.125 76.1379 271.078C74.2364 269.559 72.256 268.275 73.2152 265.557C74.8253 265.256 76.2097 264.998 77.8601 264.587C80.1599 265.312 82.1585 266.291 84.234 267.048C90.1179 269.194 96.0144 267.631 101.931 267.218C102.704 268.266 103.316 269.311 104.217 269.826C108.337 272.179 112.538 274.383 116.709 276.641C112.61 278.915 108.511 281.189 104.169 283.484Z" fill="#EAD7BE"/>
<path d="M116.912 276.542C112.538 274.383 108.337 272.179 104.218 269.826C103.317 269.311 102.704 268.266 102.09 267.035C105.03 265.584 107.838 264.563 110.645 263.542C111.706 267.402 114.886 268.888 117.979 270.539C119.097 271.136 120.025 272.106 121.222 273.046C119.975 274.271 118.545 275.357 116.912 276.542Z" fill="#EBD8C0"/>
<path d="M131.507 208.408C128.169 206.033 124.463 204.046 121.596 201.178C118.557 198.139 116.316 194.262 113.537 190.336C111.115 182.773 109.136 175.427 111.457 168.065C113.287 162.26 116.268 156.835 118.738 151.241C122.459 148.182 125.959 144.76 129.977 142.188C132.73 140.427 136.253 139.971 139.331 138.679C140.458 138.205 142.144 136.993 142.133 136.136C142.013 126.17 145.001 117.238 150.25 108.726C157.277 99.3117 166.041 93.2273 177.403 91.1856C188.695 89.1563 199.103 91.4173 208.652 97.4772C211.53 92.5898 214.212 88.0366 217.114 83.1459C218.098 81.9518 218.862 81.0951 219.625 80.2385C220.067 79.7007 220.509 79.163 221.18 78.3056C222.066 77.5643 222.807 77.235 223.37 76.7067C230.183 70.3146 238.334 66.3064 247.153 64.2652C252.804 62.9572 258.833 63.3588 264.944 63C265.703 63.0045 266.208 63.0029 266.992 63.0053C269.775 63.4692 272.28 63.9291 274.785 64.389C280.162 67.0509 285.846 69.2209 290.851 72.4838C299.554 78.158 306.322 85.822 310.313 95.7786C310.604 96.5058 311.04 97.1724 311.307 97.6755C316.105 96.1914 320.73 94.7611 325.63 93.3275C341.865 90.0103 358.212 99.0625 366.082 115.246C368.962 122.096 370.668 128.992 370.411 136.342C370.383 137.135 371.737 137.98 372.975 138.806C374.003 138.814 374.507 138.815 375.011 138.816C381.183 140.989 386.869 143.977 391.347 149.001C397.828 156.271 401.895 164.787 401.737 174.644C401.652 179.989 399.718 185.302 398.584 190.883C394.975 195.396 391.565 199.822 387.747 203.842C386.026 205.654 383.493 206.657 380.923 208.215C377.352 209.117 374.185 209.831 371.017 210.544C363.582 210.31 356.311 209.321 349.917 205.028C347.95 203.708 347.15 204.849 346.145 206.224C340.714 213.656 333.624 218.766 324.789 220.717C312.893 223.344 302.181 220.607 293.252 211.817C291.973 210.557 290.952 209.021 289.504 207.235C280.891 220.515 269.641 228.158 254.663 228.277C239.918 228.394 228.332 221.651 220.03 208.536C212.479 218.346 202.93 222.797 191.318 221.423C179.596 220.035 171.519 213.158 166.585 201.705C159.248 207.875 151.057 210.309 141.58 210.505C137.839 209.799 134.673 209.103 131.507 208.408Z" fill="#FEF3E5"/>
<path d="M370.999 210.817C374.184 209.831 377.351 209.117 380.792 208.406C386.321 214.115 392.855 217.732 399.993 220.213C406.86 222.6 413.857 224.595 420.735 226.951C427.942 229.419 433.862 233.82 438.114 240.319C446.028 252.418 438.598 266.111 425.001 267.807C419.281 268.52 413.982 267.206 408.255 266.287C401.732 262.629 395.441 259.055 389.284 255.253C388.229 254.601 387.405 253.074 387.053 251.786C383.522 238.859 378.501 226.597 371.92 214.986C371.29 213.876 371.279 212.397 370.999 210.817Z" fill="#D9BFA1"/>
<path d="M131.402 208.616C134.673 209.103 137.839 209.799 141.277 210.524C140.254 213.658 139.242 216.929 137.612 219.836C132.282 229.347 128.564 239.513 126.059 250.093C125.097 254.153 122.15 255.793 119.519 257.864C116.884 259.939 113.807 261.425 110.784 263.355C107.836 264.563 105.029 265.584 102.062 266.788C96.0134 267.631 90.1169 269.194 84.233 267.048C82.1575 266.291 80.1589 265.312 77.9072 264.339C68.3642 257.034 69.7319 244.851 76.5859 236.777C83.0759 229.132 91.986 226.109 101.083 223.642C112.098 220.655 122.304 216.071 131.402 208.616Z" fill="#D9BFA1"/>
<path d="M336.401 330.636C329.982 329.891 324.674 327.708 319.892 323.373C311.517 315.779 312.843 301.122 321.976 294.225C333.106 285.82 350.423 286.914 359.733 297.804C365.643 304.717 365.381 315.43 359.294 322.131C353.08 328.972 345.375 331.068 336.401 330.636Z" fill="#F5BDB2"/>
<path d="M196.567 302.548C201.897 317.692 190.345 328.933 177.927 330.441C170.228 331.376 163.037 330.305 156.635 325.671C144.68 317.019 145.28 301.095 158.293 293.036C167.999 287.026 178.433 286.996 188.166 293.132C191.504 295.237 193.733 299.19 196.567 302.548Z" fill="#F5C0A6"/>
<path d="M238.107 320.597C234.559 318.033 231.028 315.804 228.063 312.957C225.414 310.413 225.824 307.305 228.364 305.227C230.654 303.353 233.216 303.992 235.456 306.996C238.909 311.627 243.36 312.781 248.063 310.263C252.136 308.082 252.553 303.579 248.944 300.682C246.654 298.844 244.246 297.143 242.086 295.157C239.633 292.9 239.437 290.306 241.235 288.16C242.585 286.549 246.331 286.365 248.335 287.88C250.314 289.377 252.127 291.144 254.236 292.399C255.129 292.929 256.803 292.862 257.75 292.349C259.608 291.342 261.225 289.858 262.905 288.523C265.511 286.453 269.305 286.299 270.779 288.247C272.386 290.373 271.446 294.22 268.78 296.318C267.182 297.576 265.631 298.921 263.924 300.003C261.197 301.73 259.938 303.977 261.057 307.205C261.99 309.897 266.182 312.345 269.062 311.683C272.127 310.978 274.995 309.871 276.822 306.822C278.469 304.074 281.058 303.478 283.384 304.907C285.681 306.317 286.198 309.395 284.609 312.198C279.119 321.882 265.609 324.415 257.116 317.354C256.857 317.139 256.583 316.944 256.129 316.596C250.922 320.962 245.009 322.565 238.107 320.597Z" fill="#95856F"/>
<path d="M212.729 269.208C214.709 271.69 216.759 273.854 218.249 276.366C220.099 279.484 219.208 282.926 216.612 284.494C213.856 286.159 210.79 285.346 209.063 281.882C204.053 271.833 188.388 272.049 183.754 282.06C182.437 284.908 178.411 285.898 175.98 284.4C173.396 282.808 172.74 280.152 174.361 277.097C178.978 268.395 185.664 263.461 195.825 263.415C202.226 263.385 207.696 264.913 212.729 269.208Z" fill="#EAD7BE"/>
<path d="M335.819 273.407C336.567 274.575 337.231 275.507 337.761 276.514C339.541 279.898 338.685 283.023 335.567 284.698C333.039 286.055 330.11 285.104 328.61 281.913C324.698 273.59 312.183 272.164 306.325 277.838C304.966 279.154 303.923 280.83 302.818 282.402C300.846 285.207 298.087 285.993 295.566 284.387C293.031 282.773 292.101 279.679 293.693 276.874C298.295 268.76 304.654 263.742 314.388 263.419C323.265 263.126 330.406 265.762 335.819 273.407Z" fill="#EAD7BE"/>
<path d="M225.657 256.701V273.929M284.852 256.701V273.929" stroke="#95856F" stroke-width="18" stroke-linecap="round"/>
<path d="M339.527 474.193C339.896 475.178 340.697 475.909 341.653 476.174C341.839 476.225 342.024 476.276 342.226 476.264L376.695 479.284C377.794 479.384 378.85 478.896 379.519 477.994L384.188 471.715C390.185 463.664 398.292 457.656 407.644 454.336C416.926 451.031 425.222 445.314 431.691 437.733L441.886 425.818C442.647 424.942 442.88 423.683 442.504 422.594C442.137 421.474 441.23 420.646 440.055 420.456L403.963 413.796C402.664 413.572 401.35 414.16 400.685 415.3L396.732 421.879C392.354 429.19 385.583 434.65 377.617 437.233C370.805 439.457 364.643 443.489 359.773 448.898L340.164 470.771C339.325 471.693 339.106 473.024 339.527 474.193ZM364.498 453.33C368.585 448.757 373.79 445.342 379.548 443.472C388.966 440.408 396.996 433.938 402.159 425.282L404.953 420.589L433.34 425.83L426.901 433.42C421.162 440.116 413.793 445.207 405.573 448.127C395.049 451.87 385.881 458.636 379.112 467.73L375.478 472.598L349.262 470.3L364.498 453.33Z" fill="#C0CE7F"/>
<path d="M364.498 453.33C368.585 448.757 373.79 445.342 379.548 443.472C388.966 440.408 396.996 433.938 402.159 425.282L404.953 420.589L433.34 425.83L426.901 433.42C421.162 440.116 413.793 445.207 405.573 448.127C395.049 451.87 385.881 458.636 379.112 467.73L375.478 472.598L349.262 470.3L364.498 453.33Z" fill="#C0CE7F"/>
<path d="M403.36 432.032C403.612 432.204 403.913 432.321 404.191 432.398C405.518 432.765 406.986 432.22 407.754 430.939L408.827 429.131L411.556 429.58C413.303 429.86 414.947 428.651 415.22 426.86C415.494 425.068 414.347 423.392 412.568 423.104L407.735 422.344C406.468 422.129 405.185 422.724 404.489 423.856L402.296 427.527C401.391 429.076 401.849 431.105 403.36 432.032Z" fill="#58834C"/>
<path d="M379.668 458.716C378.27 457.616 376.271 457.912 375.197 459.346L371.563 464.214L367.258 463.838C365.508 463.693 363.963 465.031 363.79 466.817C363.667 468.413 364.68 469.847 366.13 470.249C366.316 470.3 366.501 470.351 366.703 470.339L372.757 470.86C373.857 470.961 374.913 470.472 375.581 469.57L380.25 463.291C381.355 461.865 381.067 459.816 379.668 458.716Z" fill="#58834C"/>
<path d="M43.0851 336.58C48.13 334.1 50.6939 329.223 51.8724 325.937L67.6067 339.633C47.6752 356.614 30.4109 340.163 29.6665 339.442C29.6459 339.421 29.6459 339.421 29.6252 339.421L29.5838 339.378C28.364 338.276 27.4336 337.131 26.7306 335.986C33.0574 338.573 38.5571 338.806 43.0851 336.58Z" fill="#C0CE7F"/>
<path fill-rule="evenodd" clip-rule="evenodd" d="M22.5747 338.997L26.896 342.559C27.785 343.407 36.717 351.463 49.0605 351.463C55.9662 351.463 63.9677 348.919 72.176 341.159C72.6102 340.757 72.8583 340.163 72.8377 339.548C72.817 338.933 72.5689 338.361 72.114 337.979L52.1205 320.595C51.5622 320.107 50.7766 319.959 50.0943 320.213C49.3913 320.468 48.8951 321.082 48.7503 321.825C48.7297 321.909 47.2617 329.859 41.2657 332.764C37.0685 334.799 31.5274 333.972 24.7664 330.368C24.3735 326.997 25.2833 324.432 25.3453 324.241C25.6761 323.372 25.4073 322.376 24.6837 321.803L7.83287 308.277C7.1299 307.705 6.15813 307.663 5.4138 308.171C4.66947 308.68 4.33866 309.592 4.54542 310.482C7.39868 321.634 13.7875 331.768 22.5747 338.997ZM51.8724 325.937C50.6939 329.223 48.13 334.1 43.0851 336.58C38.5571 338.806 33.0574 338.573 26.7306 335.986C27.4336 337.131 28.364 338.276 29.5838 339.378L29.6252 339.421C29.6459 339.421 29.6459 339.421 29.6665 339.442C30.4109 340.163 47.6752 356.614 67.6067 339.633L51.8724 325.937ZM20.7966 331.598C20.3417 328.778 20.5485 326.192 21.024 324.241L10.7275 315.973C13.0845 321.782 16.5167 327.103 20.7966 331.598Z" fill="#C0CE7F"/>
<path d="M21.024 324.241C20.5485 326.192 20.3417 328.778 20.7966 331.598C16.5167 327.103 13.0845 321.782 10.7275 315.973L21.024 324.241Z" fill="#58834C"/>
<path d="M57.144 342.813C57.5575 343.364 58.1571 343.64 58.798 343.64C59.2322 343.64 59.6664 343.491 60.0593 343.195C61.1964 342.304 62.3336 341.308 63.4501 340.269C63.8843 339.866 64.1324 339.273 64.1117 338.658C64.0911 338.043 63.8429 337.47 63.3881 337.089L60.2867 334.396C59.4183 333.633 58.1157 333.739 57.3714 334.651C56.6271 335.541 56.7305 336.877 57.6195 337.64L58.8807 338.743C58.4466 339.124 57.9917 339.485 57.5368 339.845C56.6271 340.545 56.4617 341.88 57.144 342.813Z" fill="#58834C"/>
<path d="M82.4652 405.049C82.1142 404.067 81.326 403.319 80.3267 402.999C79.3408 402.708 78.2904 402.852 77.4522 403.488L48.8783 424.531C47.5393 425.504 47.1148 427.351 47.898 428.837C48.3559 429.734 59.1662 450.673 73.9117 463.838C84.6225 473.381 83.0756 501.45 81.5651 511.44C81.372 512.741 81.9422 514.065 83.0405 514.783C83.9824 515.387 85.1388 515.49 86.1299 515.042C86.3101 514.961 86.4603 514.893 86.6272 514.781L116.95 494.051C117.528 493.643 117.996 493.063 118.234 492.367C118.59 491.36 126.394 467.49 107.644 440.611C101.529 433.074 85.0451 412.123 82.4652 405.049ZM112.332 489.075L88.8269 505.142C89.7458 493.028 89.8627 469.137 78.2073 458.733C67.3136 449.014 58.3955 434.136 55.0695 428.245L78.117 411.281C84.2706 422.406 100.507 442.365 102.428 444.66C117.141 465.749 113.53 484.524 112.332 489.075Z" fill="#C0CE7F"/>
<path d="M112.332 489.075L88.8269 505.142C89.7458 493.028 89.8627 469.137 78.2073 458.733C67.3136 449.014 58.3955 434.136 55.0695 428.245L78.117 411.281C84.2706 422.406 100.507 442.365 102.428 444.66C117.141 465.749 113.53 484.524 112.332 489.075Z" fill="#C0CE7F"/>
<path d="M108.73 473.045C106.93 472.865 105.337 474.247 105.162 476.091C104.902 479.152 104.413 481.433 104.107 482.638L99.7328 485.645C98.2304 486.655 97.8087 488.759 98.8384 490.317C99.7284 491.717 101.441 492.194 102.882 491.542C103.062 491.461 103.213 491.393 103.379 491.281L108.755 487.601C109.333 487.193 109.801 486.613 110.039 485.917C110.089 485.784 111.251 482.316 111.718 476.734C111.879 474.859 110.559 473.211 108.73 473.045Z" fill="#58834C"/>
<path d="M65.4414 423.005L60.5393 426.619C59.2003 427.592 58.7759 429.439 59.5591 430.924C59.6121 431.048 61.1086 433.94 63.7283 438.274C64.6015 439.719 66.3703 440.244 67.8419 439.579C67.9921 439.511 68.1122 439.456 68.2491 439.358C69.7948 438.365 70.2731 436.309 69.3035 434.724C68.2676 432.985 67.4112 431.496 66.7439 430.363L69.2717 428.485C70.7476 427.413 71.096 425.306 70.0195 423.806C69.0032 422.279 66.9173 421.934 65.4414 423.005Z" fill="#58834C"/>
<path d="M479.14 179.704L467.914 162.101C467.8 161.922 467.671 161.781 467.516 161.65C467.163 161.347 458.7 154.563 444.649 158.302C443.463 158.614 442.062 158.942 440.64 159.067C437.187 159.336 435.681 158.906 435.287 158.65L428.15 148.569C427.794 148.07 427.233 147.765 426.63 147.766C426.028 147.767 425.451 148.059 425.077 148.569C424.901 148.796 420.936 154.332 423.755 159.581C423.792 159.64 423.83 159.7 423.868 159.759L434.97 175.84C435.353 176.631 436.688 178.953 439.78 180.28C442.378 181.394 446.216 181.808 451.738 179.985C462.242 176.54 472.246 177.417 476.056 182.119C476.706 182.916 477.859 183.043 478.674 182.421C479.489 181.798 479.7 180.571 479.14 179.704ZM427.067 157.523C426.402 156.201 426.539 154.748 426.889 153.537L435.425 165.579C435.101 166.218 434.723 167.093 434.398 168.142L427.067 157.523ZM450.615 176.177C440.922 179.365 438.5 174.265 438.388 173.979C438.368 173.927 438.333 173.912 438.33 173.868C438.302 173.834 438.307 173.772 438.297 173.746C436.635 170.851 439.18 166.758 439.212 166.729C439.308 166.597 439.375 166.431 439.436 166.284C439.766 165.627 439.719 164.829 439.286 164.211L438.506 163.12C439.255 163.118 440.072 163.101 440.954 163.025C442.668 162.896 444.263 162.5 445.611 162.149C456.721 159.202 463.624 163.653 464.938 164.605L471.492 174.891C465.8 173.27 458.358 173.643 450.615 176.177Z" fill="#C0CE7F"/>
<path d="M450.615 176.177C440.922 179.365 438.5 174.265 438.388 173.979C438.368 173.927 438.333 173.912 438.33 173.868C438.302 173.834 438.307 173.772 438.297 173.746C436.635 170.851 439.18 166.758 439.212 166.729C439.308 166.597 439.375 166.431 439.436 166.284C439.766 165.627 439.719 164.829 439.286 164.211L438.506 163.12C439.255 163.118 440.072 163.101 440.954 163.025C442.668 162.896 444.263 162.5 445.611 162.149C456.721 159.202 463.624 163.653 464.938 164.605L471.492 174.891C465.8 173.27 458.358 173.643 450.615 176.177Z" fill="#C0CE7F"/>
<path d="M427.067 157.523C426.402 156.201 426.539 154.748 426.889 153.537L435.425 165.579C435.101 166.218 434.723 167.093 434.398 168.142L427.067 157.523Z" fill="#58834C"/>
<path d="M130.369 67.0231C130.817 66.8225 131.208 66.4786 131.515 66.0775L149.093 40.7183C149.121 40.6896 149.149 40.6323 149.177 40.6037C149.233 40.5177 149.288 40.4317 149.316 40.3458C149.344 40.2885 149.344 40.2312 149.372 40.1738C149.512 39.8873 149.596 39.5721 149.652 39.2856V39.2569C149.736 38.4832 151.077 19.7719 112.345 0.286853C111.143 -0.314891 109.662 0.0576152 108.852 1.14648L91.3578 25.4168C90.8547 26.1332 90.6871 27.0501 90.9106 27.9097C91.1342 28.7694 91.749 29.4571 92.5594 29.7723C92.755 29.8583 110.472 37.2224 124.194 53.2116L118.269 63.8997C117.682 64.96 117.822 66.2781 118.577 67.195C119.024 67.7394 120.337 68.9143 123.132 68.9143C124.948 68.9143 127.295 68.4558 130.369 67.0231ZM127.407 62.0945C126.597 62.4384 125.898 62.6963 125.311 62.8395L135.344 44.7013C136.601 45.1597 137.775 45.4176 138.893 45.5036L127.407 62.0945ZM97.9529 25.9612L111.981 6.50487C140.346 21.3192 143.671 34.6436 144.063 37.9675C142.889 39.1996 140.094 41.1768 135.623 38.5119C134.98 38.1394 134.226 38.0248 133.499 38.2253C132.773 38.4259 132.186 38.9131 131.795 39.5721L127.156 47.9392C116.285 35.8757 103.765 28.8267 97.9529 25.9612Z" fill="#C0CE7F"/>
<path d="M97.9529 25.9612L111.981 6.50487C140.346 21.3192 143.671 34.6436 144.063 37.9675C142.889 39.1996 140.094 41.1768 135.623 38.5119C134.98 38.1394 134.226 38.0248 133.499 38.2253C132.773 38.4259 132.186 38.9131 131.795 39.5721L127.156 47.9392C116.285 35.8757 103.765 28.8267 97.9529 25.9612Z" fill="#C0CE7F"/>
<path d="M127.407 62.0945C126.597 62.4384 125.898 62.6963 125.311 62.8395L135.344 44.7013C136.601 45.1597 137.775 45.4176 138.893 45.5036L127.407 62.0945Z" fill="#58834C"/>
<path d="M120.365 12.9521C118.661 12.0066 116.9 11.061 115 10.1154C113.798 9.51362 112.317 9.88612 111.507 10.975L108.824 14.7001C107.902 15.9609 108.181 17.7661 109.411 18.7117C109.914 19.0842 110.5 19.2848 111.059 19.2848C111.926 19.2848 112.764 18.8836 113.323 18.1099L114.608 16.3334C115.67 16.8778 116.704 17.4509 117.682 17.9953C119.052 18.7404 120.728 18.2246 121.483 16.8492C122.238 15.4451 121.735 13.6972 120.365 12.9521Z" fill="#58834C"/>
<path d="M362.864 41.9194L389.463 24.7234C392.611 32.9439 400.534 50.6594 415.139 66.6187L403.758 72.1284C402.876 72.5532 402.183 73.3636 401.844 74.2936C401.493 75.2599 401.589 76.2973 401.991 77.2374C404.959 83.5881 402.142 87.2158 400.45 88.6926C396.247 87.8717 379.286 82.127 362.864 41.9194Z" fill="#C0CE7F"/>
<path fill-rule="evenodd" clip-rule="evenodd" d="M440.847 56.9184C439.727 55.7752 438.02 55.4783 436.62 56.17L422.17 63.1724C402.79 42.9428 395.016 18.0836 394.945 17.8184C394.601 16.6972 393.763 15.7704 392.68 15.3631C391.619 14.8834 390.384 15.0679 389.432 15.71L356.251 37.1474C354.723 38.117 354.127 40.0855 354.79 41.797C370.446 81.7051 387.629 92.4687 396.18 95.365C399.36 96.4422 401.326 96.4246 401.597 96.436C401.632 96.4479 401.691 96.3874 401.726 96.3994C401.926 96.3868 402.102 96.326 402.279 96.2651C402.573 96.204 402.879 96.1066 403.161 95.961C403.208 95.9368 403.29 95.9245 403.337 95.9002C403.384 95.8759 403.443 95.8154 403.49 95.7912L438.048 74.3379C438.624 74.0105 439.07 73.4783 439.375 72.8983C444.979 62.4574 441.897 58.0377 440.847 56.9184ZM389.463 24.7234L362.864 41.9194C379.286 82.127 396.247 87.8717 400.45 88.6926C402.142 87.2158 404.959 83.5881 401.991 77.2374C401.589 76.2973 401.493 75.2599 401.844 74.2936C402.183 73.3636 402.876 72.5532 403.758 72.1284L415.139 66.6187C400.534 50.6594 392.611 32.9439 389.463 24.7234ZM410.771 82.4618L433.374 68.4142C433.878 67.3389 434.265 66.3846 434.569 65.6839L410.078 77.5648C410.541 79.289 410.756 80.9295 410.771 82.4618Z" fill="#C0CE7F"/>
<path d="M433.374 68.4142L410.771 82.4618C410.756 80.9295 410.541 79.289 410.078 77.5648L434.569 65.6839C434.265 66.3846 433.878 67.3389 433.374 68.4142Z" fill="#58834C"/>
<path d="M377.723 38.6323C376.613 36.8495 374.316 36.3129 372.577 37.452L367.676 40.6149C366.148 41.5845 365.551 43.5529 366.214 45.2645C366.818 46.7952 367.433 48.2897 368.024 49.7361C368.474 50.7725 369.288 51.5304 370.277 51.8655C371.125 52.1528 372.031 52.1382 372.901 51.7497C374.783 50.8998 375.661 48.6651 374.868 46.7487C374.667 46.2787 374.501 45.8207 374.3 45.3506L376.569 43.9084C378.308 42.7694 378.798 40.403 377.723 38.6323Z" fill="#58834C"/>
</g>
<defs>
<clipPath id="clip0_25_344">
<rect width="512" height="512" fill="white"/>
</clipPath>
</defs>
</svg>
