<svg width="100" height="100" viewBox="0 0 100 100" fill="none" xmlns="http://www.w3.org/2000/svg">
<rect width="100" height="100" rx="20" fill="#FBEAF0"/>
<path d="M56.4295 28.749C57.002 28.7488 57.5616 28.9184 58.0377 29.2363C58.5138 29.5542 58.8849 30.0062 59.104 30.5351C59.3232 31.0639 59.3806 31.6459 59.269 32.2073C59.1573 32.7688 58.8817 33.2846 58.4769 33.6894C58.0721 34.0942 57.5563 34.3698 56.9949 34.4814C56.4334 34.5931 55.8514 34.5357 55.3226 34.3165C54.7937 34.0974 54.3417 33.7263 54.0238 33.2502C53.7059 32.7741 53.5363 32.2145 53.5365 31.642C53.5384 30.8753 53.8438 30.1405 54.3859 29.5984C54.928 29.0562 55.6628 28.7508 56.4295 28.749ZM44.8865 28.749C45.5603 28.7487 46.213 28.9838 46.7317 29.4139C47.2505 29.8439 47.6026 30.4417 47.7272 31.1038C47.8517 31.766 47.7409 32.4509 47.414 33.04C47.087 33.6291 46.5644 34.0855 45.9365 34.33L42.0175 32.067C41.9966 31.9286 41.9859 31.7889 41.9855 31.649C41.9851 31.2678 42.0599 30.8903 42.2055 30.5381C42.3511 30.1858 42.5648 29.8657 42.8342 29.5961C43.1036 29.3265 43.4236 29.1126 43.7757 28.9667C44.1279 28.8209 44.5053 28.7459 44.8865 28.746V28.749ZM31.5365 61.536C31.4031 61.5365 31.2709 61.5096 31.1483 61.457C31.0256 61.4043 30.9151 61.3271 30.8235 61.23C30.7315 61.1395 30.6587 61.0314 30.6094 60.9122C30.5601 60.793 30.5353 60.665 30.5365 60.536C30.5365 60.2708 30.6419 60.0164 30.8294 59.8289C31.0169 59.6414 31.2713 59.536 31.5365 59.536H34.5915L35.1915 61.536H31.5365ZM43.6635 74.609C43.6439 74.8639 43.5268 75.1014 43.3365 75.2721C43.1462 75.4428 42.8974 75.5336 42.6419 75.5255C42.3864 75.5174 42.1438 75.411 41.9648 75.2286C41.7857 75.0461 41.6839 74.8016 41.6805 74.546V74.473L42.4545 62.885L44.4655 62.661L43.6635 74.609ZM45.3025 44.757C45.3165 44.725 45.3265 44.691 45.3405 44.657L46.6585 41.67L48.6525 42.822L45.3025 44.757ZM46.6935 39.383C46.5719 39.3128 46.4369 39.2689 46.2972 39.2543C46.1576 39.2397 46.0164 39.2547 45.8829 39.2983C45.7495 39.3419 45.6266 39.4131 45.5225 39.5073C45.4184 39.6015 45.3352 39.7165 45.2785 39.845L43.5105 43.851C42.2027 46.8295 41.8871 50.1495 42.6105 53.321L44.3105 60.666L37.2555 61.45L35.1475 54.423C34.7894 53.2217 34.8326 51.9365 35.2705 50.762L36.9105 46.391C37.3174 45.3054 37.5696 44.1679 37.6595 43.012L38.2685 35.174C38.2829 34.9855 38.2436 34.7967 38.1551 34.6296C38.0666 34.4626 37.9326 34.324 37.7685 34.23L25.4995 27.146C24.9624 26.8358 24.5346 26.3666 24.2751 25.8032C24.0156 25.2398 23.9372 24.6098 24.0505 24L60.1925 44.868C59.7204 45.2703 59.1353 45.5166 58.5176 45.5732C57.8999 45.6298 57.2799 45.4938 56.7425 45.184L46.6935 39.383ZM62.1605 47.536V53.256C62.1609 53.8807 61.9635 54.4895 61.5965 54.995L58.2175 59.736C58.0526 59.9892 57.7982 60.1709 57.5051 60.2448C57.2121 60.3186 56.902 60.2791 56.6367 60.1343C56.3715 59.9894 56.1707 59.7498 56.0745 59.4633C55.9782 59.1769 55.9936 58.8646 56.1175 58.589V58.574L59.0645 51.945L57.2375 51.133L54.2675 57.813L53.2385 60.132C53.1552 60.3204 53.1322 60.53 53.1725 60.732L55.7725 73.762C55.8262 74.0458 55.7673 74.3393 55.6084 74.5805C55.4495 74.8217 55.203 74.9916 54.921 75.0542C54.6391 75.1168 54.3438 75.0673 54.0977 74.9161C53.8516 74.7649 53.674 74.5238 53.6025 74.244L50.5525 62.01C50.3334 61.1225 50.4201 60.1871 50.7985 59.355L56.0685 47.955C56.1387 47.8041 56.1697 47.638 56.1585 47.472L56.1345 47.095C57.2077 47.6128 58.4325 47.7226 59.5806 47.4039C60.7287 47.0852 61.7218 46.3598 62.3745 45.363L62.1605 47.536ZM75.8105 27.15L63.9105 34.02C63.772 34.0989 63.6543 34.2098 63.5674 34.3434C63.4804 34.4769 63.4266 34.6294 63.4105 34.788L62.5105 43.994C62.4303 43.8831 62.3282 43.7898 62.2105 43.72L52.6615 38.207L55.6855 36.46C56.7882 36.6615 57.9266 36.4645 58.8975 35.9041C59.8683 35.3438 60.6084 34.4566 60.9855 33.401L77.2655 24.001C77.3761 24.6118 77.2958 25.2418 77.0354 25.8053C76.7751 26.3688 76.3474 26.8384 75.8105 27.15Z" fill="#D4537E"/>
</svg>
