<svg width="100" height="100" viewBox="0 0 100 100" fill="none" xmlns="http://www.w3.org/2000/svg">
<rect width="100" height="100" rx="20" fill="#EAF3DE"/>
<path d="M52.5381 48.6232C50.7986 48.6232 49.2999 49.6665 48.6277 51.1684L48.6254 51.1707C47.9123 52.8125 47.5172 54.6262 47.5172 56.534V58.4074C47.5286 59.1641 48.1372 59.7694 48.8888 59.7694H72.6284C73.3778 59.7694 73.9886 59.1617 74 58.4074V56.5363C74 54.6262 73.6049 52.8171 72.8918 51.1753L72.8828 51.1592C72.2106 49.655 70.7141 48.6209 68.9723 48.6209L52.5381 48.6232ZM70.2212 61.1429H70.2053C69.4469 61.1429 68.8337 61.7643 68.8337 62.5279C68.8337 63.2938 69.4469 63.9129 70.2053 63.9129H72.6284C73.3846 63.9129 74 63.2915 74 62.5279C74 61.762 73.3846 61.1429 72.6284 61.1429H70.2212ZM48.8867 61.1429C48.1305 61.1429 47.5174 61.7643 47.5174 62.5279C47.5174 63.2938 48.1305 63.9129 48.889 63.9129H60.4797V67.2308C60.4797 67.9967 61.0951 68.6158 61.8513 68.6158C62.6098 68.6158 63.2252 67.9967 63.2252 67.2308V63.9129L64.3629 63.9152V65.2658C64.3629 66.0316 64.9783 66.653 65.7367 66.653C66.4952 66.653 67.1083 66.0316 67.1083 65.2658V62.5279C67.1083 61.762 66.4952 61.1406 65.7367 61.1406L48.8867 61.1429ZM42.485 28.4929C41.9105 28.6717 41.5199 29.2083 41.5199 29.8159V37.6419H28.3671C28.0037 37.6419 27.6585 37.7887 27.4019 38.0455C27.1453 38.3069 27 38.6578 27 39.0269V44.3398C27 44.7067 27.1453 45.0599 27.4019 45.319C27.6608 45.5781 28.0083 45.7248 28.3739 45.7248H29.8726L32.1775 69.4664C32.3728 71.4705 34.0419 72.9999 36.0357 72.9999H45.2644C46.0206 72.9999 46.6361 72.3785 46.6361 71.6149V71.6126C46.6361 71.4177 46.5974 71.2366 46.5248 71.0669V71.0646C46.1978 70.3331 46.0161 69.5214 46.0161 68.6684L46.0138 66.6643V66.662V66.646V66.6368C46.0138 65.8342 46.3363 65.1096 46.8563 64.5845L46.8586 64.5823C46.3363 64.0572 46.0138 63.3303 46.0138 62.5277C46.0138 61.7183 46.3454 60.9845 46.8745 60.4595L46.8768 60.4572C46.3545 59.9412 46.0252 59.2281 46.0138 58.4302V56.5338C46.0138 54.4128 46.4544 52.3904 47.2492 50.5604L47.2583 50.5421C48.1598 48.5288 50.1627 47.1232 52.4903 47.1049L54.5455 47.1026C55.2471 47.1003 55.8239 46.5683 55.9011 45.8804L55.917 45.7245H57.4113C58.1697 45.7245 58.7851 45.1031 58.7851 44.3372V39.0266C58.7851 38.2607 58.1697 37.6416 57.4113 37.6416L44.2654 37.6393V30.8382L51.1508 28.6805L50.44 26L42.485 28.4929ZM48.8867 65.252C48.1282 65.252 47.5174 65.8711 47.5174 66.6369C47.5174 66.6645 47.5196 68.6662 47.5196 68.6662C47.5196 71.0601 49.4408 73 51.8115 73H69.7057C72.0765 73 73.9954 71.0601 73.9976 68.6662C73.9976 66.6644 73.9999 66.6369 73.9999 66.6369C73.9999 65.8711 73.3845 65.2497 72.6283 65.2497L69.5309 65.2543C68.9359 65.2841 68.4386 65.6991 68.2819 66.2563V66.2586C67.889 67.2881 66.8967 68.0219 65.7363 68.0219C65.3048 68.0219 64.8983 67.921 64.5373 67.7421H64.5327C64.2966 69.0194 63.1861 69.9847 61.8508 69.9847C60.3453 69.9847 59.1235 68.751 59.1235 67.2308V66.6369C59.1235 65.8711 58.5104 65.2496 57.7519 65.2496L48.8867 65.252Z" fill="#639922"/>
</svg>
