<svg width="63" height="63" viewBox="0 0 63 63" fill="none" xmlns="http://www.w3.org/2000/svg">
<path d="M31.5 0C23.1459 0 15.1349 3.31902 9.22535 9.22535C3.31911 15.1348 0 23.1459 0 31.5C0 39.8541 3.31902 47.8651 9.22535 53.7746C15.1348 59.6809 23.1459 63 31.5 63C39.8541 63 47.8651 59.681 53.7746 53.7746C59.6809 47.8652 63 39.8541 63 31.5C62.987 23.1492 59.6648 15.1449 53.7589 9.24111C47.8559 3.33486 39.8516 0.0124342 31.5 0ZM31.5 57.6118C24.5737 57.6118 17.9326 54.8595 13.0369 49.9635C8.14109 45.0675 5.38849 38.4262 5.38849 31.5003C5.38849 24.5745 8.14084 17.9329 13.0369 13.0372C17.9329 8.14142 24.5741 5.38882 31.5 5.38882C38.4259 5.38882 45.0674 8.14117 49.9631 13.0372C54.8589 17.9332 57.6115 24.5745 57.6115 31.5003C57.5986 38.4234 54.843 45.0578 49.9502 49.951C45.0575 54.8437 38.4234 57.5989 31.5 57.6118Z" fill="#155FA3"/>
<path d="M34.1943 30.3859V11.689C34.1943 10.1994 32.9898 8.99487 31.5002 8.99487C30.0107 8.99487 28.8062 10.1994 28.8062 11.689V32.6166L38.0182 41.8353V41.832C38.5169 42.3696 39.2131 42.6804 39.9481 42.6966C40.6799 42.7096 41.3891 42.4246 41.9072 41.9065C42.4253 41.3885 42.7102 40.6793 42.6973 39.9475C42.6811 39.2125 42.3702 38.5162 41.8327 38.0176L34.1943 30.3859Z" fill="#155FA3"/>
</svg>
