<svg width="65" height="69" viewBox="0 0 65 69" fill="none" xmlns="http://www.w3.org/2000/svg">
<path d="M32.4922 0.259766C33.3137 0.215314 34.1358 0.33752 34.9082 0.621094C35.5879 0.870667 36.2164 1.24063 36.7646 1.71094L36.9951 1.91797L37.002 1.9248L37.0078 1.93164L63.8584 31.5713H63.8574C64.2905 32.0281 64.5786 32.6031 64.6846 33.2236C64.7908 33.8458 64.7097 34.4857 64.4512 35.0615L64.4502 35.0625C63.7245 36.6654 61.7178 37.6894 59.293 37.6895H58.5498C58.5494 37.7595 58.5473 37.8295 58.543 37.8994V64.0498C58.5427 66.6818 56.1339 68.7596 53.0332 68.7598H11.9629C8.91286 68.7598 6.45424 66.6832 6.43262 64.0518V37.8994C6.42825 37.8295 6.42616 37.7595 6.42578 37.6895H5.68262C3.26541 37.6894 1.25197 36.7404 0.524414 35.0615L0.436523 34.8418C0.250427 34.3233 0.20236 33.7639 0.298828 33.2188C0.408639 32.5984 0.700594 32.0248 1.1377 31.5713L27.9873 1.93164L27.9932 1.9248L28 1.91895C28.5975 1.34852 29.3058 0.906439 30.0811 0.621094C30.8517 0.337447 31.6723 0.215076 32.4922 0.259766ZM11.792 37.6895C11.6216 37.6891 11.4533 37.7251 11.2979 37.7949C11.1698 37.8525 11.0534 37.9327 10.9531 38.0303V63.9365C11.0769 64.0405 11.2168 64.1241 11.3691 64.1797C11.5532 64.2469 11.7499 64.2737 11.9453 64.2598H22.8428V54.0391C22.8429 48.7066 26.4432 44.2998 30.9727 44.2998H34.0225C38.5519 44.2998 42.1522 48.7066 42.1523 54.0391V64.3096H53.0654L53.0781 64.3105C53.2725 64.3307 53.4693 64.3042 53.6514 64.2334C53.8056 64.1734 53.9444 64.0818 54.0625 63.9668V38.0703C53.9733 37.9838 53.8702 37.9125 53.7568 37.8604C53.6165 37.7958 53.464 37.7615 53.3096 37.7598L53.2803 37.7588L53.252 37.752L53.0029 37.6895H11.792ZM30.9727 48.7998C30.0224 48.7998 29.1202 49.3603 28.4453 50.3135C27.7717 51.2649 27.3428 52.5862 27.3428 54.0391V64.2598H37.6523V54.0391C37.6523 52.5967 37.2212 51.2757 36.5459 50.3213C35.869 49.3647 34.9668 48.7998 34.0225 48.7998H30.9727ZM32.4873 4.76074C32.0659 4.7608 31.649 4.84485 31.2607 5.00781L5.77441 33.2598H59.0625V33.1875L59.2451 33.1885L33.7158 5.00879C33.3271 4.84542 32.9093 4.76074 32.4873 4.76074Z" fill="#155FA3" stroke="black" stroke-width="0.5"/>
</svg>
