<svg width="100" height="100" viewBox="0 0 100 100" fill="none" xmlns="http://www.w3.org/2000/svg">
<rect width="100" height="100" rx="20" fill="#FAEEDA"/>
<path d="M70.2628 42.5249V46.7798H29.7349V42.5249H70.2628Z" fill="#EF9F27"/>
<path d="M70.2628 66.9165V71.1714H29.7349V66.9165H70.2628Z" fill="#EF9F27"/>
<path d="M26 25H30.2549V74.9944H26V25Z" fill="#EF9F27"/>
<path d="M69.7451 25H74V74.9944H69.7451V25Z" fill="#EF9F27"/>
<path d="M46.0536 30.6074V41.275H37.2583V30.6074H39.0843V25.0001H44.2278V30.6074H46.0536Z" fill="#EF9F27"/>
<path d="M62.7391 30.6074V41.275H53.9438V30.6074H55.7698V25.0001H60.9133V30.6074H62.7391Z" fill="#EF9F27"/>
<path d="M38.7844 65.6666L36.5557 54.181H46.757L44.5283 65.6666H38.7844Z" fill="#EF9F27"/>
<path d="M63.4422 54.181L61.2135 65.6666H55.4695L53.2407 54.181H63.4422Z" fill="#EF9F27"/>
</svg>
