<svg width="100" height="100" viewBox="0 0 100 100" fill="none" xmlns="http://www.w3.org/2000/svg">
<rect width="100" height="100" rx="20" fill="#F9FDFC"/>
<path d="M38.0746 48.1492C43.6387 48.1492 48.1492 43.6387 48.1492 38.0746C48.1492 32.5106 43.6387 28 38.0746 28C32.5106 28 28 32.5106 28 38.0746C28 43.6387 32.5106 48.1492 38.0746 48.1492Z" fill="#5DCAA5"/>
<path d="M44.1194 52.6268H32.0298C29.791 52.6268 28 54.4179 28 56.6567V68.9701C28 71.2089 29.791 73 32.0298 73H44.3433C46.5821 73 48.3731 71.2089 48.3731 68.9701V56.6567C48.1492 54.4179 46.3582 52.6268 44.1194 52.6268Z" fill="#5DCAA5"/>
<path d="M68.7461 28H56.4327C54.1939 28 52.4028 29.791 52.4028 32.0298V44.3433C52.4028 46.5821 54.1939 48.3731 56.4327 48.3731H68.7461C70.9849 48.3731 72.776 46.5821 72.776 44.3433V32.0298C72.776 29.791 70.9849 28 68.7461 28Z" fill="#5DCAA5"/>
<path d="M69.4175 59.3432H66.0593V55.985C66.0593 54.194 64.4921 52.6268 62.7011 52.6268C60.91 52.6268 59.3429 54.194 59.3429 55.985V59.3432H55.9847C54.1936 59.3432 52.6265 60.9104 52.6265 62.7015C52.6265 64.4925 54.1936 66.0597 55.9847 66.0597H59.3429V69.4179C59.3429 71.2089 60.91 72.7761 62.7011 72.7761C64.4921 72.7761 66.0593 71.2089 66.0593 69.4179V66.0597H69.4175C71.2085 66.0597 72.7757 64.4925 72.7757 62.7015C72.7757 60.9104 71.2085 59.3432 69.4175 59.3432Z" fill="#5DCAA5"/>
</svg>
