<svg width="64" height="64" viewBox="0 0 64 64" fill="none" xmlns="http://www.w3.org/2000/svg">
<path d="M57.6299 0.25C59.2488 0.250117 60.8103 0.887984 61.96 2.03711L62.1465 2.22266L62.1387 2.22949C63.1572 3.35785 63.7471 4.85016 63.7471 6.36719L63.75 61.9053L63.7402 62.0947C63.6463 63.0287 62.8645 63.75 61.9043 63.75H2.0957C1.07148 63.75 0.25 62.9293 0.25 61.9053V23.457C0.25 21.8385 0.887444 20.2763 2.03711 19.127L2.03906 19.126C3.18694 17.9987 4.76426 17.34 6.36816 17.3398H17.751C19.3898 17.3398 20.9326 17.9781 22.082 19.127L22.084 19.1289C23.2114 20.2761 23.8701 21.8337 23.8701 23.457V34.9551C24.6277 34.6259 25.4456 34.4268 26.2979 34.4268H37.7002C38.5528 34.4268 39.3709 34.6274 40.1279 34.9551V6.36621C40.128 4.74723 40.7855 3.16649 41.915 2.03711C43.0647 0.884959 44.6055 0.25 46.2471 0.25H57.6299ZM6.36328 21.0293C5.72469 21.0294 5.11538 21.2942 4.64551 21.7461L4.64453 21.7451C4.18675 22.1881 3.93566 22.8118 3.93555 23.4561L3.93652 60.041H20.1748V23.4561C20.1747 22.8154 19.9084 22.1899 19.4619 21.7432L19.2803 21.5791C18.8431 21.2209 18.3079 21.0293 17.7461 21.0293H6.36328ZM46.2256 3.93945C45.5828 3.93945 44.9762 4.18711 44.5107 4.65234L44.5078 4.65527C44.0495 5.09843 43.7969 5.72152 43.7969 6.36621V60.0381H60.0352L60.0361 6.36621C60.0361 5.72814 59.772 5.11912 59.3203 4.64941L59.1455 4.4873C58.7204 4.1322 58.1727 3.93954 57.6084 3.93945H46.2256ZM26.293 38.1162C25.6542 38.1162 25.0442 38.381 24.5742 38.833C24.1761 39.2184 23.9333 39.7397 23.877 40.293H23.8848V60.0381H40.123V40.543C40.123 39.9843 39.9201 39.4479 39.5664 39.0078L39.4062 38.8262C38.9629 38.3682 38.3393 38.1162 37.6943 38.1162H26.293Z" fill="#155FA3" stroke="black" stroke-width="0.5"/>
</svg>
