<svg width="40" height="41" viewBox="0 0 40 41" fill="none" xmlns="http://www.w3.org/2000/svg">
<path d="M21.3049 38.3705C21.0862 39.4445 20.566 40.0898 19.5257 40.0774C18.4148 40.0642 17.9448 39.3088 17.6896 38.3392C16.7789 34.8786 15.8452 31.424 14.9454 27.9606C14.5307 26.3647 13.5635 25.3533 11.972 24.9307C8.93412 24.1239 5.89609 23.3176 2.8602 22.5032C2.29949 22.3528 1.63309 22.3041 1.22177 21.9611C0.675473 21.5055 -0.0125087 20.7996 0.000172774 20.2151C0.0122505 19.6594 0.748952 18.8163 1.33729 18.626C4.83317 17.4953 8.38299 16.5324 11.9053 15.4816C13.5649 14.9864 14.5616 13.8838 14.9984 12.1643C15.8793 8.69713 16.8835 5.26139 17.7843 1.79898C18.0401 0.815577 18.4266 0.00274195 19.5353 6.841e-06C20.6386 -0.00271954 21.0718 0.80984 21.3232 1.78247C22.2552 5.38709 23.23 8.98068 24.1569 12.5866C24.553 14.1273 25.9239 15.2955 27.4159 15.6733C30.9786 16.5755 34.5224 17.5636 38.0319 18.6522C38.5526 18.8137 39.2222 19.7652 39.1496 20.2503C39.058 20.8615 38.3737 21.67 37.7718 21.8689C35.2492 22.7025 32.662 23.3406 30.0979 24.0485C29.7252 24.1514 29.3549 24.2825 28.9744 24.3355C25.8233 24.7745 24.1808 26.5783 23.5808 29.7072C23.027 32.5954 22.0947 35.411 21.3049 38.3705Z" fill="#F8B480"/>
</svg>
