<svg width="41" height="48" viewBox="0 0 41 48" fill="none" xmlns="http://www.w3.org/2000/svg">
<path d="M22.4778 44.0303C22.0426 45.2707 21.6128 46.3977 21.1022 47.5893C19.3004 48.1019 18.3429 47.4397 18.1164 45.67C18.0087 44.8291 17.8594 43.9935 17.6602 43.0665C17.341 41.6741 17.0906 40.3707 16.7666 38.8794C16.6027 38.3744 16.5124 38.0573 16.4221 37.7402C16.3834 37.4923 16.3448 37.2445 16.2553 36.9189C16.0695 35.9383 15.991 35.0225 15.7861 34.1358C15.4926 32.8654 14.6633 32.4317 13.4342 32.8206C10.4978 33.75 7.56308 34.6847 4.53089 35.6686C3.64954 35.9532 2.87261 36.3335 2.07807 36.3748C1.40397 36.4099 0.398454 36.2544 0.112888 35.8126C-0.164249 35.3839 0.11367 34.3736 0.4633 33.8168C0.939444 33.0585 1.71491 32.4882 2.50489 31.729C3.24607 30.9573 3.84439 30.2938 4.44272 29.6304C5.71011 28.3695 6.9733 27.1044 8.24877 25.8518C8.4775 25.6272 8.73842 25.4219 9.01603 25.2627C10.5375 24.3902 10.6583 23.7028 9.45241 22.4893C6.85975 19.8804 4.25775 17.2807 1.6592 14.6776C1.48796 14.506 1.31372 14.3375 1.1404 14.168C0.365214 13.41 -0.0311732 12.3682 0.638284 11.5761C1.03228 11.1099 2.22662 10.9687 2.91991 11.1692C5.61442 11.9484 8.27184 12.8699 10.9072 13.8362C15.6952 15.5918 15.6545 15.0516 16.6589 10.8347C17.4865 7.36007 18.3786 3.9008 19.3007 0.342768C20.3644 -0.260964 21.2241 -0.0514746 22.0337 0.84752C22.1622 1.41168 22.2162 1.90364 22.3473 2.606C22.7309 4.18047 23.0374 5.54451 23.344 6.90857C23.8438 9.24833 24.2767 11.6056 24.8802 13.9183C25.0884 14.7161 25.732 15.3078 26.7825 14.8679C27.4729 14.5788 28.2187 14.4223 29.1396 14.1931C29.4838 14.1012 29.6281 14.0227 29.8826 13.9329C30.592 13.7194 31.1913 13.5171 31.9035 13.3113C33.8896 12.7269 35.7476 12.0859 37.6451 11.5997C38.2541 11.4436 39.1334 11.482 39.5816 11.8287C39.9466 12.111 39.8528 12.9863 39.9625 13.5987C38.9114 14.6934 37.8604 15.7881 36.6807 17.0155C36.024 17.7073 35.4958 18.2665 34.9676 18.8256C33.672 20.0927 32.3506 21.3348 31.0907 22.6364C30.3486 23.403 30.2518 24.227 31.3544 25.0744C31.6722 25.4249 31.872 25.6337 32.0717 25.8425C33.2633 27.073 34.4549 28.3035 35.78 29.6649C36.581 30.498 37.2483 31.2001 37.9156 31.9023C37.9717 31.984 38.0277 32.0657 38.1859 32.2657C38.6468 32.7077 39.0056 33.0314 39.3644 33.3552C39.9856 34.3313 40.8082 35.3471 39.269 36.2043C38.876 36.4232 38.3012 36.4616 37.8424 36.386C36.8688 36.2255 35.9167 35.9354 34.7883 35.6082C33.7729 35.2042 32.9248 34.8905 32.0768 34.5767C30.483 34.0744 28.89 33.5699 27.2953 33.0705C25.7298 32.5801 24.9151 33.0015 24.5501 34.5693C24.2798 35.7303 24.0999 36.9123 23.8302 38.3042C23.4494 39.8186 23.1181 41.1138 22.7868 42.409C22.6856 42.9116 22.5844 43.4142 22.4778 44.0303Z" fill="#C0CE7F"/>
</svg>
