<svg width="100" height="100" viewBox="0 0 100 100" fill="none" xmlns="http://www.w3.org/2000/svg">
<rect width="100" height="100" rx="20" fill="#E6F1FB"/>
<path fill-rule="evenodd" clip-rule="evenodd" d="M80.2219 61.7809H76.2122C76.2334 61.5576 76.2467 61.3236 76.2467 61.1002C76.2467 57.0559 72.9602 53.769 68.9156 53.769C64.8712 53.769 61.5844 57.0555 61.5844 61.1002C61.5844 61.3315 61.5977 61.5576 61.619 61.7809H38.3927C38.414 61.5576 38.4273 61.3236 38.4273 61.1002C38.4273 57.0559 35.1408 53.769 31.0961 53.769C27.0518 53.769 23.7649 57.0555 23.7649 61.1002C23.7649 61.3315 23.7782 61.5576 23.7995 61.7809H19.7898C19.3537 61.7809 19 61.4273 19 60.9912V49.4594C19 49.2493 19.0824 49.0499 19.2313 48.901L21.3905 46.7365H75.1449C78.6787 48.2549 80.6995 50.834 81 54.2644V54.3336V60.9917C81 61.4277 80.6464 61.7814 80.2102 61.7814L80.2219 61.7809ZM22.9632 45.1649L34.8354 33.2315C34.9843 33.0826 35.1837 33.0002 35.3938 33.0002H43.6922V45.1651L22.9632 45.1649ZM45.2699 33.0001H53.5077C53.7178 33.0001 53.9172 33.0825 54.0661 33.2314L65.9995 45.1648H45.2728V33L45.2699 33.0001Z" fill="#378ADD"/>
<path fill-rule="evenodd" clip-rule="evenodd" d="M31.1025 66.8522C27.9303 66.8522 25.3511 64.2729 25.3511 61.1008C25.3511 57.9286 27.9303 55.3494 31.1025 55.3494C34.2746 55.3494 36.8539 57.9286 36.8539 61.1008C36.8539 64.2729 34.2746 66.8522 31.1025 66.8522ZM31.1025 63.3051C29.8846 63.3051 28.8981 62.3186 28.8981 61.1008C28.8981 59.8829 29.8846 58.8964 31.1025 58.8964C32.3203 58.8964 33.3068 59.8829 33.3068 61.1008C33.3068 62.3186 32.3203 63.3051 31.1025 63.3051ZM31.1025 60.4599C30.7541 60.4599 30.4696 60.7471 30.4696 61.0928C30.4696 61.4411 30.7568 61.7256 31.1025 61.7256C31.4508 61.7256 31.7353 61.4385 31.7353 61.0928C31.7353 60.7445 31.4481 60.4599 31.1025 60.4599Z" fill="#378ADD"/>
<path fill-rule="evenodd" clip-rule="evenodd" d="M68.9238 66.8522C65.7515 66.8522 63.1724 64.2729 63.1724 61.1008C63.1724 57.9286 65.7516 55.3494 68.9238 55.3494C72.0959 55.3494 74.6752 57.9286 74.6752 61.1008C74.6752 64.2729 72.0959 66.8522 68.9238 66.8522ZM68.9238 63.3051C67.7059 63.3051 66.7194 62.3186 66.7194 61.1008C66.7194 59.8829 67.7059 58.8964 68.9238 58.8964C70.1416 58.8964 71.1281 59.8829 71.1281 61.1008C71.1281 62.3186 70.1416 63.3051 68.9238 63.3051ZM68.9238 60.4599C68.5754 60.4599 68.2909 60.7471 68.2909 61.0928C68.2909 61.4411 68.5781 61.7256 68.9238 61.7256C69.2721 61.7256 69.5566 61.4385 69.5566 61.0928C69.5566 60.7445 69.2694 60.4599 68.9238 60.4599Z" fill="#378ADD"/>
</svg>
