<svg width="100" height="100" viewBox="0 0 100 100" fill="none" xmlns="http://www.w3.org/2000/svg">
<rect width="100" height="100" rx="20" fill="#EEEDFE"/>
<path d="M46.1679 75.3499H42.5856C42.0721 75.3499 41.6567 75.7652 41.6567 76.2788C41.6567 77.7816 42.8751 79.0001 44.378 79.0001C45.8809 79.0001 47.0993 77.7817 47.0993 76.2788C47.0993 75.7652 46.684 75.3499 46.1704 75.3499H46.1679Z" fill="#534AB7"/>
<path d="M57.8207 75.3499H54.2385C53.7249 75.3499 53.3096 75.7652 53.3096 76.2788C53.3096 77.7816 54.528 79.0001 56.0309 79.0001C57.5338 79.0001 58.7522 77.7817 58.7522 76.2788C58.7522 75.7652 58.3368 75.3499 57.8233 75.3499H57.8207Z" fill="#534AB7"/>
<path d="M44.4663 28.1217H46.1177C46.4122 28.1217 46.6514 28.4162 46.6514 28.6554V34.6895C46.6514 34.984 46.4122 35.2232 46.1177 35.2232H44.4663C44.1718 35.2232 43.9326 34.9287 43.9326 34.6895V28.6554C43.9326 28.3609 44.1718 28.1217 44.4663 28.1217Z" fill="#534AB7"/>
<path d="M54.289 28.1217H55.9404C56.235 28.1217 56.4741 28.4162 56.4741 28.6554V34.6895C56.4741 34.984 56.235 35.2232 55.9404 35.2232H54.289C53.9945 35.2232 53.7554 34.9287 53.7554 34.6895V28.6554C53.7554 28.3609 53.9945 28.1217 54.289 28.1217Z" fill="#534AB7"/>
<path d="M43.85 27.4998H46.7324C47.0772 27.4998 47.3567 27.2204 47.3567 26.8755V24.985C47.3567 24.5646 47.6965 24.2247 48.1169 24.2247H52.2907C52.7111 24.2247 53.051 24.5645 53.051 24.985V26.8755C53.051 27.2204 53.3304 27.4998 53.6753 27.4998H56.5577C56.9026 27.4998 57.182 27.2204 57.182 26.8755V21.6243C57.182 21.2794 56.9026 21 56.5577 21H43.8499C43.505 21 43.2256 21.2794 43.2256 21.6243V26.8755C43.2256 27.2204 43.5051 27.4998 43.85 27.4998Z" fill="#534AB7"/>
<path d="M59.696 35.8473H40.7075C38.107 35.8473 36 37.9543 36 40.5547V70.0233C36 72.6237 38.107 74.7307 40.7075 74.7307H51.8641C55.8415 74.7307 58.7745 72.1807 56.5011 68.674L50.5324 60.1022L45.8325 65.1898C45.6663 65.3711 45.3718 65.3484 45.2334 65.1445L44.5789 64.1854C44.5008 64.0696 44.4907 63.9236 44.5537 63.7977L48.0931 56.6862L45.5506 53.1292C44.9993 52.3187 45.2082 51.216 46.0163 50.6647C46.8269 50.1134 47.9295 50.3224 48.4808 51.1305L50.8597 54.7983L58.7715 54.106C58.91 54.0934 59.0434 54.1563 59.1214 54.2721L59.7759 55.2313C59.9144 55.4352 59.8288 55.7146 59.5972 55.8052L53.1424 58.3175L58.8644 66.9344C60.3018 69.263 62.6706 70.4461 64.4001 68.4474V40.5526C64.4001 37.9521 62.293 35.8451 59.6926 35.8451L59.696 35.8473Z" fill="#534AB7"/>
</svg>
